<svg width="26" height="26" viewBox="0 0 26 26" fill="none" xmlns="http://www.w3.org/2000/svg">
<path fill-rule="evenodd" clip-rule="evenodd" d="M18.7891 5.80176C20.3567 5.80176 21.6329 7.07792 21.6329 8.64551C21.6329 9.09509 21.9968 9.45801 22.4454 9.45801C22.8939 9.45801 23.2579 9.09509 23.2579 8.64551C23.2579 6.18201 21.2526 4.17676 18.7891 4.17676C18.3405 4.17676 17.9766 4.54076 17.9766 4.98926C17.9766 5.43776 18.3405 5.80176 18.7891 5.80176Z" fill="#6E7F9D"/>
<path fill-rule="evenodd" clip-rule="evenodd" d="M17.5704 8.84863C18.1303 8.84863 18.5854 9.30363 18.5854 9.86372C18.5854 10.3122 18.9494 10.6762 19.3979 10.6762C19.8475 10.6762 20.2114 10.3122 20.2114 9.86372C20.2114 8.40772 19.0263 7.22363 17.5704 7.22363C17.1218 7.22363 16.7579 7.58763 16.7579 8.03613C16.7579 8.48463 17.1218 8.84863 17.5704 8.84863Z" fill="#6E7F9D"/>
<path opacity="0.4" fill-rule="evenodd" clip-rule="evenodd" d="M4.69065 16.0539H21.309C21.6123 16.0539 21.8506 15.8156 21.8506 15.5122V11.0164C21.8181 11.1031 21.7748 11.1789 21.7315 11.2547C21.2548 12.0456 20.3881 12.5764 19.4023 12.5764C18.1673 12.5764 17.1273 11.7531 16.8023 10.6372C15.6756 10.3013 14.8631 9.26134 14.8631 8.03717C14.8631 7.05134 15.3831 6.19551 16.174 5.71884C16.109 5.49134 16.0765 5.24217 16.0765 4.99301C16.0765 4.66801 16.1306 4.36467 16.239 4.08301H7.95148C5.61148 4.08301 4.14898 5.29634 4.14898 7.23551V15.5122C4.14898 15.8156 4.38732 16.0539 4.69065 16.0539Z" fill="#6E7F9D"/>
<path fill-rule="evenodd" clip-rule="evenodd" d="M22.6947 17.5996H3.30633C2.82642 17.5996 2.4375 17.9885 2.4375 18.4663V19.0155C2.4375 20.6156 3.73967 21.9167 5.33975 21.9167H20.6602C22.2614 21.9167 23.5625 20.6156 23.5625 19.0155V18.4663C23.5625 17.9885 23.1725 17.5996 22.6947 17.5996Z" fill="#6E7F9D"/>
</svg>
